#!OML:ASF H:\LiuWeirdWalks\Patient Classification 1\Patient 1\Session 1\male.ASF
:FULLY-SPECIFIED
:DEGREES
1234
root 1.47713 18.0669 32.5946 -0.11706 6.51965 -1.97364
lowerback 6.75371 -0.110207 0.950932
upperback -0.282319 0.0718341 3.36357
thorax -4.08788 0.052593 2.94628
lowerneck -20.1704 0.211045 6.68632
upperneck 24.7197 0.470184 -8.39704
head 11.4123 -0.231382 -4.17562
rclavicle -6.75868e-015 -9.54166e-015
rhumerus -35.2482 -27.0574 -24.1502
rradius 38.1458
rwrist -0.48655
rhand -18.4076 5.61772
rfingers 7.12502
rthumb 7.87691 -24.2155
lclavicle -6.75868e-015 -9.54166e-015
lhumerus -36.2033 13.1039 36.0058
lradius 48.3108
lwrist 7.75599
lhand -10.9857 5.08628
lfingers 7.12502
lthumb 15.0342 34.5204
rfemur -9.98242 -3.29036 20.6295
rtibia 29.2056
rfoot -10.1055 -24.8274
rtoes 0.233076
lfemur -10.2597 -4.31644 -13.0279
ltibia 26.3212
lfoot -7.67672 13.8243
ltoes -6.37759
1235
root 1.48816 18.0677 32.6143 -0.130482 6.46917 -1.97171
lowerback 6.69971 -0.119536 0.81838
upperback -0.237833 0.0500578 3.46893
thorax -4.01069 0.0451648 3.13243
lowerneck -20.4193 0.285103 6.7665
upperneck 24.8571 0.555157 -8.44885
head 11.5219 -0.195114 -4.20646
rclavicle 8.94531e-016 -3.4191e-014
rhumerus -35.3644 -26.8961 -25.6895
rradius 38.0999
rwrist -0.500153
rhand -18.301 5.44272
rfingers 7.12502
rthumb 7.97985 -24.3866
lclavicle 8.94531e-016 -3.4191e-014
lhumerus -36.8915 14.0131 37.1899
lradius 48.1662
lwrist 3.46057
lhand -7.99735 5.21163
lfingers 7.12502
lthumb 17.9114 34.4068
rfemur -9.88224 -3.04826 20.6161
rtibia 29.1687
rfoot -10.1441 -25.0185
rtoes 0.320843
lfemur -10.0885 -4.56922 -13.0719
ltibia 26.1712
lfoot -7.58078 14.0511
ltoes -6.94969
1236
root 1.50044 18.068 32.6336 -0.172158 6.43961 -1.98695
lowerback 6.64923 -0.136337 0.71541
upperback -0.176673 0.0201062 3.57056
thorax -3.91755 0.0326406 3.29867
lowerneck -20.6585 0.353662 6.85072
upperneck 24.9557 0.624392 -8.4841
head 11.6137 -0.163557 -4.2323
rclavicle 1.2921e-015 1.51076e-014
rhumerus -35.493 -26.7669 -27.2383
rradius 38.0103
rwrist -0.474806
rhand -18.144 5.28367
rfingers 7.12502
rthumb 8.13135 -24.5399
lclavicle 1.2921e-015 1.51076e-014
lhumerus -37.5161 14.7425 38.5515
lradius 48.0091
lwrist 0.652491
lhand -5.98587 5.13515
lfingers 7.12502
lthumb 19.8459 34.1419
rfemur -9.74156 -2.88288 20.6095
rtibia 29.1141
rfoot -10.179 -25.1599
rtoes 0.397872
lfemur -9.90668 -4.75333 -13.0873
ltibia 26.0202
lfoot -7.47035 14.1638
ltoes -7.41602
1237
root 1.51336 18.0678 32.6528 -0.221177 6.42322 -1.99746
lowerback 6.61512 -0.157477 0.61061
upperback -0.0893055 -0.0162517 3.67093
thorax -3.80587 0.0164363 3.46514
lowerneck -21.0285 0.427163 6.92498
upperneck 25.0647 0.691668 -8.50425
head 11.7357 -0.134 -4.25372
rclavicle 1.19271e-015 5.48646e-014
rhumerus -35.6234 -26.7076 -28.8094
rradius 37.9241
rwrist -0.440129
rhand -17.9691 5.14788
rfingers 7.12502
rthumb 8.30019 -24.6691
lclavicle 1.19271e-015 5.48646e-014
lhumerus -37.9883 15.2333 40.2135
lradius 47.7832
lwrist 0.153731
lhand -5.58337 5.17418
lfingers 7.12502
lthumb 20.2328 34.1404
rfemur -9.57396 -2.77496 20.5891
rtibia 29.0256
rfoot -10.201 -25.2572
rtoes 0.455312
lfemur -9.73558 -4.85684 -13.0993
ltibia 25.9134
lfoot -7.42095 14.1732
ltoes -7.67907
1238
root 1.52751 18.0671 32.6723 -0.301918 6.41558 -2.06906
lowerback 6.58641 -0.187952 0.589727
upperback 0.0106563 -0.0588704 3.7717
thorax -3.68365 -0.00485267 3.58503
lowerneck -21.3886 0.500017 7.01624
upperneck 25.1357 0.746755 -8.51337
head 11.8403 -0.106928 -4.27388
rclavicle 6.11263e-015 1.19271e-014
rhumerus -35.8405 -26.6001 -30.4293
rradius 37.9475
rwrist -0.466398
rhand -17.7666 5.01469
rfingers 7.12502
rthumb 8.49558 -24.7944
lclavicle 6.11263e-015 1.19271e-014
lhumerus -38.4095 15.6384 41.9147
lradius 47.4905
lwrist -0.160688
lhand -5.32908 5.16346
lfingers 7.12502
lthumb 20.4772 34.1036
rfemur -9.35131 -2.74055 20.6217
rtibia 28.8915
rfoot -10.2032 -25.2937
rtoes 0.482522
lfemur -9.55623 -4.88609 -13.0445
ltibia 25.8714
lfoot -7.46729 14.0814
ltoes -7.96655
